<svg xmlns="http://www.w3.org/2000/svg" width="18" height="18.001" viewBox="0 0 18 18.001">
  <path id="Вычитание_1" data-name="Вычитание 1" d="M18,18H0V0H18V18ZM13.16,6.512a3.161,3.161,0,0,0-3.073,1.829,4.751,4.751,0,0,0-.438,1.829,3.95,3.95,0,0,0,.9,2.665,3.41,3.41,0,0,0,2.606.974s.046,0,.126,0c.5,0,3-.122,3-2.534H14.677a.922.922,0,0,1-.256.626,1.608,1.608,0,0,1-1.208.4h-.056a1.74,1.74,0,0,1-.883-.24,1.541,1.541,0,0,1-.669-1.418h4.73a5.136,5.136,0,0,0-.308-2.357A2.822,2.822,0,0,0,13.16,6.512ZM1.636,4.091V13.61H6.42A2.722,2.722,0,0,0,9.291,10.8v0A2.913,2.913,0,0,0,8.7,8.878a1.487,1.487,0,0,0-1.117-.442,1.578,1.578,0,0,0,.7-.267,1.743,1.743,0,0,0,.7-1.544A2.375,2.375,0,0,0,6.389,4.091Zm9.558.559V5.824h3.768V4.65Zm-4.94,7.267H3.73V9.374H6.389a.926.926,0,0,1,.5.169,1.3,1.3,0,0,1,.466,1.138C7.352,11.486,6.982,11.9,6.254,11.918ZM14.59,9.374h-3s0,0,0,0a2.149,2.149,0,0,1,.274-.73A1.49,1.49,0,0,1,13.2,7.906a1.31,1.31,0,0,1,.972.364,1.711,1.711,0,0,1,.422,1.1ZM6.223,7.906H3.73V5.782H6.389c.006,0,.647.011.647.99C7.035,7.769,6.645,7.906,6.223,7.906Z" fill="#fff"/>
</svg>
