<svg xmlns="http://www.w3.org/2000/svg" width="14.017" height="14.017" viewBox="0 0 14.017 14.017">
  <path id="close" d="M14.4,14.3a1.092,1.092,0,0,1-.33.8l-1.6,1.6a1.14,1.14,0,0,1-1.6,0L7.393,13.236,3.924,16.7a1.092,1.092,0,0,1-.8.33,1.092,1.092,0,0,1-.8-.33l-1.6-1.6a1.14,1.14,0,0,1,0-1.6l3.469-3.469L.714,6.558a1.14,1.14,0,0,1,0-1.6l1.6-1.6a1.092,1.092,0,0,1,.8-.33,1.092,1.092,0,0,1,.8.33L7.393,6.817l3.469-3.469a1.14,1.14,0,0,1,1.6,0l1.6,1.6a1.14,1.14,0,0,1,0,1.6L10.6,10.027,14.07,13.5a1.092,1.092,0,0,1,.33.8Z" transform="translate(-0.384 -3.018)" fill="#fff"/>
</svg>
