<svg xmlns="http://www.w3.org/2000/svg" width="18.574" height="18.12" viewBox="0 0 18.574 18.12">
  <path id="github" d="M9.287,0a9.085,9.085,0,0,1,4.662,1.246,9.244,9.244,0,0,1,3.38,3.38,9.085,9.085,0,0,1,1.246,4.662,9.026,9.026,0,0,1-1.772,5.46A9.1,9.1,0,0,1,12.225,18.1a.542.542,0,0,1-.484-.085.473.473,0,0,1-.157-.363q0-.036.006-.925T11.6,15.1a2.154,2.154,0,0,0-.629-1.717,8.3,8.3,0,0,0,1.239-.218,4.937,4.937,0,0,0,1.137-.472,3.375,3.375,0,0,0,.979-.8,3.751,3.751,0,0,0,.641-1.27,6.1,6.1,0,0,0,.249-1.82,3.582,3.582,0,0,0-.956-2.491,3.22,3.22,0,0,0-.1-2.467,1.583,1.583,0,0,0-.979.133,6.532,6.532,0,0,0-1.112.532l-.46.29a8.735,8.735,0,0,0-4.644,0q-.193-.133-.514-.327a7.273,7.273,0,0,0-1.009-.466,1.663,1.663,0,0,0-1.028-.164,3.22,3.22,0,0,0-.1,2.467A3.582,3.582,0,0,0,3.361,8.8a6.044,6.044,0,0,0,.248,1.814,3.874,3.874,0,0,0,.636,1.27,3.277,3.277,0,0,0,.974.81,4.912,4.912,0,0,0,1.137.472,8.335,8.335,0,0,0,1.239.218A2.042,2.042,0,0,0,7,14.632a2.416,2.416,0,0,1-.544.182,3.38,3.38,0,0,1-.689.06,1.43,1.43,0,0,1-.792-.26,2.126,2.126,0,0,1-.671-.756,1.949,1.949,0,0,0-.587-.629,1.771,1.771,0,0,0-.6-.29L2.878,12.9a.789.789,0,0,0-.351.054q-.1.054-.06.139a.666.666,0,0,0,.109.169.89.89,0,0,0,.157.145l.085.06a1.457,1.457,0,0,1,.526.46,3.032,3.032,0,0,1,.381.617l.121.278a1.532,1.532,0,0,0,.532.743,1.885,1.885,0,0,0,.81.363,5.114,5.114,0,0,0,.84.085,3.6,3.6,0,0,0,.671-.042l.278-.049q0,.46.006,1.07t.006.659a.473.473,0,0,1-.157.363.542.542,0,0,1-.484.085,9.1,9.1,0,0,1-4.577-3.356A9.025,9.025,0,0,1,0,9.287,9.085,9.085,0,0,1,1.246,4.625a9.244,9.244,0,0,1,3.38-3.38A9.085,9.085,0,0,1,9.287,0Z" fill="#fff"/>
</svg>
