<svg xmlns="http://www.w3.org/2000/svg" width="16.026" height="13.737" viewBox="0 0 16.026 13.737">
  <path id="heart" d="M8.013,13.737a.535.535,0,0,1-.394-.161L2.039,8.192a2.963,2.963,0,0,1-.246-.232q-.156-.161-.5-.586A7.9,7.9,0,0,1,.689,6.5,5.435,5.435,0,0,1,.21,5.419,3.9,3.9,0,0,1,0,4.185,4.1,4.1,0,0,1,1.136,1.109,4.3,4.3,0,0,1,4.275,0,3.562,3.562,0,0,1,5.406.192,4.594,4.594,0,0,1,6.479.711q.5.326.854.613a8.427,8.427,0,0,1,.68.608,8.229,8.229,0,0,1,.68-.608q.358-.286.854-.613A4.582,4.582,0,0,1,10.62.192,3.563,3.563,0,0,1,11.751,0,4.3,4.3,0,0,1,14.89,1.109a4.1,4.1,0,0,1,1.136,3.077A5.847,5.847,0,0,1,13.978,8.21L8.406,13.576a.535.535,0,0,1-.394.161Z" fill="#fff"/>
</svg>
