<svg xmlns="http://www.w3.org/2000/svg" width="16.61" height="16.61" viewBox="0 0 16.61 16.61">
  <path id="settings-sharp" d="M10.556,7.244a2.89,2.89,0,1,0,2.966,2.889,2.928,2.928,0,0,0-2.966-2.889Zm6.4,2.889a5.824,5.824,0,0,1-.061.807L18.7,12.316a.411.411,0,0,1,.1.534l-1.708,2.871a.437.437,0,0,1-.524.178l-2.123-.83a6.59,6.59,0,0,1-1.44.819l-.317,2.195a.439.439,0,0,1-.427.356H8.848a.442.442,0,0,1-.427-.344L8.1,15.9a6.319,6.319,0,0,1-1.44-.819l-2.123.83a.437.437,0,0,1-.524-.178L2.31,12.862a.411.411,0,0,1,.1-.534l1.806-1.376a6.142,6.142,0,0,1-.061-.819,5.824,5.824,0,0,1,.061-.807L2.407,7.95a.411.411,0,0,1-.1-.534L4.018,4.545a.437.437,0,0,1,.524-.178l2.123.83A6.589,6.589,0,0,1,8.1,4.379l.317-2.195a.439.439,0,0,1,.427-.356h3.416a.442.442,0,0,1,.427.344l.317,2.195a6.319,6.319,0,0,1,1.442.819l2.121-.83a.437.437,0,0,1,.524.178L18.8,7.4a.411.411,0,0,1-.1.534L16.9,9.314a6.142,6.142,0,0,1,.061.818Z" transform="translate(-2.251 -1.828)" fill="#fff"/>
</svg>
