<svg xmlns="http://www.w3.org/2000/svg" width="18" height="18" viewBox="0 0 18 18">
  <path id="vk" d="M11.763,0H6.237C1.194,0,0,1.194,0,6.237v5.526C0,16.806,1.194,18,6.237,18h5.526C16.806,18,18,16.806,18,11.763V6.237C18,1.194,16.793,0,11.763,0Zm2.769,12.842H13.224c-.5,0-.648-.394-1.538-1.3-.774-.75-1.118-.851-1.308-.851-.267,0-.344.076-.344.444V12.32c0,.318-.1.508-.939.508a5.1,5.1,0,0,1-4-2.4A10.532,10.532,0,0,1,3.022,6.072c0-.19.076-.368.444-.368H4.775c.33,0,.457.152.585.508.647,1.867,1.727,3.506,2.172,3.506.165,0,.241-.076.241-.495V7.291c-.051-.89-.521-.965-.521-1.282a.315.315,0,0,1,.33-.3H9.64c.279,0,.381.152.381.483v2.6c0,.279.128.381.2.381.165,0,.305-.1.61-.406a11.127,11.127,0,0,0,1.613-2.681.58.58,0,0,1,.573-.368h1.308c.394,0,.483.2.394.483a16.5,16.5,0,0,1-1.766,3.023c-.139.229-.191.33,0,.585.139.191.6.584.9.939a5.667,5.667,0,0,1,1.1,1.538c.128.368-.064.558-.432.558Z" fill="#fff"/>
</svg>
